# Blender v2.93.5 OBJ File: 'logo-alexpro-seperate-mesh-3d.blend'
# www.blender.org
mtllib logo-alexpro-seperate-mesh-3d.mtl
o Curve.3_CUCurve.020
v 0.060390 0.015572 0.006309
v 0.073002 -0.014533 0.006309
v -0.072865 -0.014533 0.006309
v -0.060252 0.015572 0.006309
v 0.060390 0.015572 -0.007691
v 0.073002 -0.014533 -0.007691
v -0.072865 -0.014533 -0.007691
v -0.060252 0.015572 -0.007691
v 0.060390 0.015572 -0.007691
v 0.060390 0.015572 0.006309
v 0.073002 -0.014533 -0.007691
v 0.073002 -0.014533 0.006309
v -0.072865 -0.014533 -0.007691
v -0.072865 -0.014533 0.006309
v -0.060252 0.015572 -0.007691
v -0.060252 0.015572 0.006309
vn 0.0000 -0.0000 1.0000
vn 0.0000 0.0000 -1.0000
vn 0.9223 0.3864 0.0000
vn 0.0000 -1.0000 0.0000
vn -0.9223 0.3864 0.0000
vn 0.0000 1.0000 0.0000
usemtl SVGMat.020
s off
f 3//1 1//1 4//1
f 3//1 2//1 1//1
f 5//2 7//2 8//2
f 6//2 7//2 5//2
f 10//3 12//3 11//3 9//3
f 12//4 14//4 13//4 11//4
f 14//5 16//5 15//5 13//5
f 16//6 10//6 9//6 15//6
o Curve.1_CUCurve.004
v 0.019082 0.145495 0.004309
v 0.024254 0.115390 0.004309
v -0.024116 0.115390 0.004309
v -0.018944 0.145495 0.004309
v 0.019082 0.145495 -0.005691
v 0.024254 0.115390 -0.005691
v -0.024116 0.115390 -0.005691
v -0.018944 0.145495 -0.005691
v 0.019082 0.145495 -0.005691
v 0.019082 0.145495 0.004309
v 0.024254 0.115390 -0.005691
v 0.024254 0.115390 0.004309
v -0.024116 0.115390 -0.005691
v -0.024116 0.115390 0.004309
v -0.018944 0.145495 -0.005691
v -0.018944 0.145495 0.004309
vn 0.0000 -0.0000 1.0000
vn 0.0000 0.0000 -1.0000
vn 0.9856 0.1693 0.0000
vn 0.0000 -1.0000 0.0000
vn -0.9856 0.1693 0.0000
vn 0.0000 1.0000 0.0000
usemtl SVGMat.004
s off
f 19//7 17//7 20//7
f 19//7 18//7 17//7
f 21//8 23//8 24//8
f 22//8 23//8 21//8
f 26//9 28//9 27//9 25//9
f 28//10 30//10 29//10 27//10
f 30//11 32//11 31//11 29//11
f 32//12 26//12 25//12 31//12
o Curve.2_CUCurve.003
v 0.038665 0.080843 0.005309
v 0.049563 0.050851 0.005309
v 0.012190 0.050737 0.005309
v 0.009803 0.080843 0.005309
v -0.039056 0.080843 0.005309
v -0.011614 0.080843 0.005309
v -0.014333 0.050737 0.005309
v -0.049426 0.050737 0.005309
v 0.038665 0.080843 -0.006691
v 0.049563 0.050851 -0.006691
v 0.012190 0.050737 -0.006691
v 0.009803 0.080843 -0.006691
v -0.039056 0.080843 -0.006691
v -0.011614 0.080843 -0.006691
v -0.014333 0.050737 -0.006691
v -0.049426 0.050737 -0.006691
v -0.039056 0.080843 -0.006691
v -0.039056 0.080843 0.005309
v -0.011614 0.080843 -0.006691
v -0.011614 0.080843 0.005309
v -0.014333 0.050737 -0.006691
v -0.014333 0.050737 0.005309
v -0.049426 0.050737 -0.006691
v -0.049426 0.050737 0.005309
v 0.038665 0.080843 -0.006691
v 0.038665 0.080843 0.005309
v 0.049563 0.050851 -0.006691
v 0.049563 0.050851 0.005309
v 0.012190 0.050737 -0.006691
v 0.012190 0.050737 0.005309
v 0.009803 0.080843 -0.006691
v 0.009803 0.080843 0.005309
vn 0.0000 -0.0000 1.0000
vn 0.0000 0.0000 -1.0000
vn 0.0000 1.0000 0.0000
vn 0.9959 -0.0899 0.0000
vn 0.0000 -1.0000 0.0000
vn -0.9455 0.3257 0.0000
vn 0.9399 0.3415 0.0000
vn 0.0031 -1.0000 0.0000
vn -0.9969 -0.0790 0.0000
usemtl SVGMat.003
s off
f 40//13 38//13 37//13
f 40//13 39//13 38//13
f 35//13 33//13 36//13
f 35//13 34//13 33//13
f 46//14 48//14 45//14
f 47//14 48//14 46//14
f 41//14 43//14 44//14
f 42//14 43//14 41//14
f 50//15 52//15 51//15 49//15
f 52//16 54//16 53//16 51//16
f 54//17 56//17 55//17 53//17
f 56//18 50//18 49//18 55//18
f 58//19 60//19 59//19 57//19
f 60//20 62//20 61//20 59//20
f 62//21 64//21 63//21 61//21
f 64//15 58//15 57//15 63//15
o Curve.5_CUCurve.001
v 0.075869 -0.048077 0.008309
v 0.096489 -0.078182 0.008309
v 0.048143 -0.078182 0.008309
v 0.039143 -0.048077 0.008309
v -0.075732 -0.048077 0.008309
v -0.039006 -0.048077 0.008309
v -0.048005 -0.078182 0.008309
v -0.096352 -0.078182 0.008309
v 0.075869 -0.048077 -0.009691
v 0.096489 -0.078182 -0.009691
v 0.048143 -0.078182 -0.009691
v 0.039143 -0.048077 -0.009691
v -0.075732 -0.048077 -0.009691
v -0.039006 -0.048077 -0.009691
v -0.048005 -0.078182 -0.009691
v -0.096352 -0.078182 -0.009691
v -0.075732 -0.048077 -0.009691
v -0.075732 -0.048077 0.008309
v -0.039006 -0.048077 -0.009691
v -0.039006 -0.048077 0.008309
v -0.048005 -0.078182 -0.009691
v -0.048005 -0.078182 0.008309
v -0.096352 -0.078182 -0.009691
v -0.096352 -0.078182 0.008309
v 0.075869 -0.048077 -0.009691
v 0.075869 -0.048077 0.008309
v 0.096489 -0.078182 -0.009691
v 0.096489 -0.078182 0.008309
v 0.048143 -0.078182 -0.009691
v 0.048143 -0.078182 0.008309
v 0.039143 -0.048077 -0.009691
v 0.039143 -0.048077 0.008309
vn 0.0000 -0.0000 1.0000
vn 0.0000 0.0000 -1.0000
vn 0.0000 1.0000 0.0000
vn 0.9581 -0.2864 0.0000
vn 0.0000 -1.0000 0.0000
vn -0.8250 0.5651 0.0000
vn 0.8250 0.5651 0.0000
vn -0.9581 -0.2864 0.0000
usemtl SVGMat.002
s off
f 72//22 70//22 69//22
f 72//22 71//22 70//22
f 67//22 65//22 68//22
f 67//22 66//22 65//22
f 78//23 80//23 77//23
f 79//23 80//23 78//23
f 73//23 75//23 76//23
f 74//23 75//23 73//23
f 82//24 84//24 83//24 81//24
f 84//25 86//25 85//25 83//25
f 86//26 88//26 87//26 85//26
f 88//27 82//27 81//27 87//27
f 90//28 92//28 91//28 89//28
f 92//26 94//26 93//26 91//26
f 94//29 96//29 95//29 93//29
f 96//24 90//24 89//24 95//24
o Curve.6_CUCurve
v 0.113599 -0.102642 0.010000
v 0.144500 -0.132747 0.010000
v 0.072120 -0.132747 0.010000
v 0.058991 -0.102642 0.010000
v -0.113599 -0.102642 0.010000
v -0.058991 -0.102642 0.010000
v -0.072120 -0.132747 0.010000
v -0.144500 -0.132747 0.010000
v 0.113599 -0.102642 -0.010000
v 0.144500 -0.132747 -0.010000
v 0.072120 -0.132747 -0.010000
v 0.058991 -0.102642 -0.010000
v -0.113599 -0.102642 -0.010000
v -0.058991 -0.102642 -0.010000
v -0.072120 -0.132747 -0.010000
v -0.144500 -0.132747 -0.010000
v -0.113599 -0.102642 -0.010000
v -0.113599 -0.102642 0.010000
v -0.058991 -0.102642 -0.010000
v -0.058991 -0.102642 0.010000
v -0.072120 -0.132747 -0.010000
v -0.072120 -0.132747 0.010000
v -0.144500 -0.132747 -0.010000
v -0.144500 -0.132747 0.010000
v 0.113599 -0.102642 -0.010000
v 0.113599 -0.102642 0.010000
v 0.144500 -0.132747 -0.010000
v 0.144500 -0.132747 0.010000
v 0.072120 -0.132747 -0.010000
v 0.072120 -0.132747 0.010000
v 0.058991 -0.102642 -0.010000
v 0.058991 -0.102642 0.010000
vn 0.0000 -0.0000 1.0000
vn 0.0000 0.0000 -1.0000
vn 0.0000 1.0000 0.0000
vn 0.9166 -0.3998 0.0000
vn 0.0000 -1.0000 0.0000
vn -0.6978 0.7163 0.0000
vn 0.6978 0.7163 0.0000
vn -0.9166 -0.3998 0.0000
usemtl SVGMat.001
s off
f 104//30 102//30 101//30
f 104//30 103//30 102//30
f 99//30 97//30 100//30
f 99//30 98//30 97//30
f 110//31 112//31 109//31
f 111//31 112//31 110//31
f 105//31 107//31 108//31
f 106//31 107//31 105//31
f 114//32 116//32 115//32 113//32
f 116//33 118//33 117//33 115//33
f 118//34 120//34 119//34 117//34
f 120//35 114//35 113//35 119//35
f 122//36 124//36 123//36 121//36
f 124//34 126//34 125//34 123//34
f 126//37 128//37 127//37 125//37
f 128//32 122//32 121//32 127//32
